{"title":"Akcent - In Culori 2002","uid":10119758,"size":258304308,"categoryP":"audio","categoryS":"flac","magnet":"?xt=urn:btih:7f02e99cc52a750d3312f1acab51dd99ba2137c6&amp;dn=Akcent+-+In+Culori+2002&amp;tr=udp%3A%2F%2Ftracker.openbittorrent.com%3A80&amp;tr=udp%3A%2F%2Fopen.demonii.com%3A1337&amp;tr=udp%3A%2F%2Ftracker.coppersurfer.tk%3A6969&amp;tr=udp%3A%2F%2Fexodus.desync.com%3A6969","seeders":1,"leechers":0,"uploader":"kxmp","files":14,"time":1399654795,"description":"REM GENRE &quot;Dance&quot;\nREM DATE 2002\nREM DISCID 7308950A\nREM COMMENT &quot;ExactAudioCopy v1.0b3&quot;\nTITLE &quot;In culori&quot;\nPERFORMER &quot;Akcent&quot;\nFILE &quot;01. Ti-am promis.flac&quot; WAVE    ; 244426.667 milliseconds\n  TRACK 01 AUDIO\n    TITLE &quot;Ti-am promis&quot;\n    PERFORMER &quot;Akcent&quot;\n    INDEX 01 00:00:00\n  TRACK 02 AUDIO\n    TITLE &quot;Cel mai dulce cadou&quot;\n    PERFORMER &quot;Akcent&quot;\n    INDEX 00 04:02:32\nFILE &quot;02. Cel mai dulce cadou.flac&quot; WAVE    ; 223586.667 milliseconds\n    INDEX 01 00:00:00\n  TRACK 03 AUDIO\n    TITLE &quot;Prima iubire&quot;\n    PERFORMER &quot;Akcent&quot;\n    INDEX 00 03:41:44\nFILE &quot;03. Prima iubire.flac&quot; WAVE    ; 249280.000 milliseconds\n    INDEX 01 00:00:00\n  TRACK 04 AUDIO\n    TITLE &quot;Da-mi un tel&quot;\n    PERFORMER &quot;Akcent&quot;\n    INDEX 00 04:07:21\nFILE &quot;04. Da-mi un tel.flac&quot; WAVE    ; 206106.667 milliseconds\n    INDEX 01 00:00:00\n  TRACK 05 AUDIO\n    TITLE &quot;Departe de tine&quot;\n    PERFORMER &quot;Akcent&quot;\n    INDEX 00 03:24:08\nFILE &quot;05. Departe de tine.flac&quot; WAVE    ; 221586.667 milliseconds\n    INDEX 01 00:00:00\n  TRACK 06 AUDIO\n    TITLE &quot;In culori&quot;\n    PERFORMER &quot;Akcent&quot;\n    INDEX 00 03:39:44\nFILE &quot;06. In culori.flac&quot; WAVE    ; 216760.000 milliseconds\n    INDEX 01 00:00:00\n  TRACK 07 AUDIO\n    TITLE &quot;Spune-mi&quot;\n    PERFORMER &quot;Akcent&quot;\n    INDEX 00 03:34:57\nFILE &quot;07. Spune-mi.flac&quot; WAVE    ; 242853.333 milliseconds\n    INDEX 01 00:00:00\n  TRACK 08 AUDIO\n    TITLE &quot;Intr-o noapte tarziu&quot;\n    PERFORMER &quot;Akcent&quot;\n    INDEX 00 04:00:64\nFILE &quot;08. Intr-o noapte tarziu.flac&quot; WAVE    ; 200320.000 milliseconds\n    INDEX 01 00:00:00\n  TRACK 09 AUDIO\n    TITLE &quot;Macar&quot;\n    PERFORMER &quot;Akcent&quot;\n    INDEX 00 03:18:24\nFILE &quot;09. Macar.flac&quot; WAVE    ; 195546.667 milliseconds\n    INDEX 01 00:00:00\n  TRACK 10 AUDIO\n    TITLE &quot;Nici o zi fara tine&quot;\n    PERFORMER &quot;Akcent&quot;\n    INDEX 00 03:13:41\nFILE &quot;10. Nici o zi fara tine.flac&quot; WAVE    ; 196906.667 milliseconds\n    INDEX 01 00:00:00\n","torrent":{"xt":"urn:btih:7f02e99cc52a750d3312f1acab51dd99ba2137c6","amp;dn":"Akcent+-+In+Culori+2002","amp;tr":["udp%3A%2F%2Ftracker.openbittorrent.com%3A80","udp%3A%2F%2Fopen.demonii.com%3A1337","udp%3A%2F%2Ftracker.coppersurfer.tk%3A6969","udp%3A%2F%2Fexodus.desync.com%3A6969"],"infoHash":"7f02e99cc52a750d3312f1acab51dd99ba2137c6","infoHashBuffer":{"type":"Buffer","data":[127,2,233,156,197,42,117,13,51,18,241,172,171,81,221,153,186,33,55,198]},"announce":[],"urlList":[]}}